# xmcd
#
# Track frame offsets:
#	150
#	15203
#	17686
#	32766
#	46753
#	48891
#	62800
#	64664
#	76573
#	95511
#	112053
#	114266
#	124431
#	126994
#	140417
#	151851
#	153587
#	167090
#
# Disc length: 2491 seconds
#
# Revision: 1
# Processed by: cddbd v1.5.2PL0 Copyright (c) Steve Scherf et al.
# Submitted via: audiograbber 1.83.01
#
DISCID=df09b912
DTITLE=Ronnie Milsap - Out Where The Bright Lights Are Glowing
DYEAR=1981
DGENRE=Country
TTITLE0=Out Where The Bright Lights Are Glowing
TTITLE1=String Interlude
TTITLE2=Four Walls
TTITLE3=Pride Goes Before A Fall
TTITLE4=Guitar Interlude
TTITLE5=I'm Beginning To Forget You
TTITLE6=String Interlude
TTITLE7=He'll Have To Go
TTITLE8=I'm Getting Better
TTITLE9=Am I Losing You
TTITLE10=String Interlude
TTITLE11=I Won't Forget You
TTITLE12=Dobro Interlude
TTITLE13=I Guess I'm Crazy
TTITLE14=When Two Worlds Collide
TTITLE15=String Interlude
TTITLE16=Missing You
TTITLE17=Dear Friend
EXTD=
EXTT0=
EXTT1=
EXTT2=
EXTT3=
EXTT4=
EXTT5=
EXTT6=
EXTT7=
EXTT8=
EXTT9=
EXTT10=
EXTT11=
EXTT12=
EXTT13=
EXTT14=
EXTT15=
EXTT16=
EXTT17=
PLAYORDER=
